<svg viewBox="0 0 24 24" fill="none" xmlns="http://www.w3.org/2000/svg">
  <path d="M24 5.457v13.909c0 .904-.732 1.636-1.636 1.636h-3.819V11.73L12 16.64l-6.545-4.91v9.273H1.636A1.636 1.636 0 0 1 0 19.366V5.457c0-.887.711-1.603 1.598-1.619L12 10.341l10.402-6.503A1.636 1.636 0 0 1 24 5.457z" fill="#EA4335"/>
  <path d="M0 5.457c0-.887.711-1.603 1.598-1.619L12 10.341 22.402 3.838A1.636 1.636 0 0 1 24 5.457l-12 7.5L0 5.457z" fill="#FBBC04"/>
  <path d="M18.545 11.73l5.455-4.273v13.909c0 .904-.732 1.636-1.636 1.636h-3.819V11.73z" fill="#34A853"/>
  <path d="M5.455 11.73H1.636A1.636 1.636 0 0 1 0 19.366V7.457l5.455 4.273z" fill="#C5221F"/>
</svg> 